<svg xmlns="http://www.w3.org/2000/svg" width="626.957" height="158.082" viewBox="0 0 626.957 158.082"><defs><style>.a,.b,.c,.f{fill:none;}.a,.b,.c,.d,.f{stroke:#294a66;}.a,.c,.d,.f{stroke-miterlimit:10;}.a,.b,.c,.d{stroke-width:4px;}.b{stroke-linejoin:bevel;}.c{stroke-linecap:square;}.d,.e{fill:#294a66;}.f{stroke-width:5px;}</style></defs><g transform="translate(-35.65 -31.85)"><path class="a" d="M473.65,70.155v123.1H365.74v-8.225h99.58V61.93Z" transform="translate(-62.232 -5.326)"/><path class="a" d="M463.37,56.6v123.1H355.46V33.85h85.756Z" transform="translate(-60.283 0)"/><path class="b" d="M461.252,33.85l-.162,22.981,22.316-.227Z" transform="translate(-80.319)"/><line class="c" x2="56.139" transform="translate(310.768 50.51)"/><line class="c" x2="56.139" transform="translate(310.768 66.895)"/><line class="c" x2="77.499" transform="translate(310.768 82.818)"/><line class="c" x2="77.491" transform="translate(310.387 98.748)"/><line class="c" x2="56.52" transform="translate(310.387 115.012)"/><line class="c" x2="77.491" transform="translate(310.387 162.731)"/><line class="c" x2="56.139" transform="translate(310.768 130.918)"/><line class="c" x2="56.52" transform="translate(310.387 146.825)"/><rect class="d" width="14.27" height="31.813" transform="translate(373.997 115.012)"/><line class="a" x2="78.617" transform="translate(433.693 106.779)"/><path class="e" d="M632.248,122.046c-4.6,1.71-10.307,4.627-13.848,7.714l2.788-7.714L618.4,114.34C621.941,117.427,627.646,120.344,632.248,122.046Z" transform="translate(-110.157 -15.267)"/><line class="a" x2="78.617" transform="translate(176.174 106.779)"/><path class="e" d="M314.446,122.046c-4.6,1.71-10.315,4.627-13.856,7.714l2.788-7.714-2.788-7.706A49.173,49.173,0,0,0,314.446,122.046Z" transform="translate(-49.875 -15.267)"/><path class="a" d="M145.568,56.6v123.1H37.65V33.85h85.764Z" transform="translate(0 0)"/><path class="b" d="M143.452,33.85l-.162,22.981L165.6,56.6Z" transform="translate(-20.038)"/><line class="c" x2="56.131" transform="translate(53.249 50.51)"/><line class="c" x2="56.131" transform="translate(53.249 66.895)"/><line class="c" x2="77.491" transform="translate(53.249 82.818)"/><path class="a" d="M781.17,56.6v123.1H673.26V33.85h85.764Z" transform="translate(-120.563 0)"/><path class="b" d="M779.062,33.85,778.9,56.831l22.308-.227Z" transform="translate(-140.601)"/><path class="f" d="M710.93,116.27l16.547,21.5,36.529-28.888" transform="translate(-127.709 -14.232)"/><line class="a" x1="9.416" y1="0.065" transform="translate(402.002 64.764)"/></g></svg>