<svg xmlns="http://www.w3.org/2000/svg" width="559.5" height="167.26" viewBox="0 0 559.5 167.26"><defs><style>.a,.h{fill:#294a66;}.b,.c,.d,.e,.f,.g{fill:none;}.b,.c,.d,.e,.f,.g,.h{stroke:#294a66;}.b,.c,.d,.f{stroke-linejoin:bevel;}.b,.c,.d{stroke-width:2px;}.c{stroke-dasharray:11.7 11.7;}.d{stroke-dasharray:11.79 11.79;}.e,.g,.h{stroke-miterlimit:10;}.e,.f,.g,.h{stroke-width:4px;}.g{stroke-linecap:square;}</style></defs><g transform="translate(-24.91 -40.6)"><path class="a" d="M568.87,125a6.68,6.68,0,1,0-6.68-6.68,6.68,6.68,0,0,0,6.68,6.68Z"/><path class="a" d="M577.65,126.85H560.09c-3.24,0-6.76,3.52-6.76,6.76v22.47a2.93,2.93,0,0,0,5.86,0V137.61h1.35v50.14a3.86,3.86,0,0,0,7.71,0v-29.1h1.24v29.1a3.86,3.86,0,0,0,7.71,0V137.61h1.35v18.47a2.93,2.93,0,0,0,5.86,0V133.61C584.41,130.37,580.89,126.85,577.65,126.85Z"/><path class="b" d="M539.78,200.86v6h-6"/><line class="c" x1="415.49" transform="translate(106.58 206.86)"/><path class="b" d="M100.73,206.86h-6v-6"/><line class="d" y1="135.58" transform="translate(94.73 53.49)"/><path class="b" d="M94.73,47.6v-6h6"/><line class="c" x2="415.5" transform="translate(112.43 41.6)"/><path class="b" d="M533.78,41.6h6v6"/><line class="d" y2="135.57" transform="translate(539.78 59.39)"/><path class="e" d="M325.61,84.63v71.91h-63v-4.8h58.16V79.83Z"/><path class="e" d="M320.74,79.83v71.91h-63V66.54H307.8Z"/><path class="f" d="M307.81,66.54l-.1,13.42,13.03-.13Z"/><line class="g" x2="32.79" transform="translate(266.82 76.27)"/><line class="g" x2="32.79" transform="translate(266.82 85.84)"/><line class="g" x2="45.27" transform="translate(266.82 95.15)"/><line class="g" x2="45.26" transform="translate(266.6 104.45)"/><line class="g" x2="33.01" transform="translate(266.6 113.95)"/><line class="g" x2="45.26" transform="translate(266.6 141.82)"/><line class="g" x2="32.79" transform="translate(266.82 123.24)"/><line class="g" x2="33.01" transform="translate(266.6 132.53)"/><rect class="h" width="8.34" height="18.58" transform="translate(303.75 113.95)"/><line class="e" x1="5.5" y1="0.03" transform="translate(320.11 84.6)"/><path class="a" d="M359.76,125.74a6.62,6.62,0,1,0-6.62-6.62,6.62,6.62,0,0,0,6.62,6.62Z"/><path class="a" d="M368.45,127.61H356.32a10.439,10.439,0,0,1-8.389-4.228L340.16,112.91a2.9,2.9,0,1,0-4.66,3.46l15,20.52a5.16,5.16,0,0,1,1,3.08v47.95a3.82,3.82,0,1,0,7.63,0V159.11h1.23v28.81a3.82,3.82,0,1,0,7.63,0V138.26h1.34v18.3a2.91,2.91,0,0,0,5.81,0V134.31C375.15,131.1,371.66,127.61,368.45,127.61Z"/><path class="a" d="M194.56,123.86a6.69,6.69,0,1,0-6.68-6.68,6.69,6.69,0,0,0,6.68,6.68Z"/><path class="a" d="M203.34,125.75H185.78c-3.24,0-6.76,3.52-6.76,6.76V155a2.93,2.93,0,0,0,5.86,0V136.5h1.35v50.14a3.86,3.86,0,0,0,7.71,0v-29.1h1.24v29.1a3.86,3.86,0,0,0,7.71,0V136.5h1.35V155a2.93,2.93,0,0,0,5.86,0V132.51C210.1,129.27,206.58,125.75,203.34,125.75Z"/><path class="a" d="M438,123.86a6.68,6.68,0,1,0-4.73-1.953A6.69,6.69,0,0,0,438,123.86Z"/><path class="a" d="M446.81,125.75H429.25c-3.24,0-6.77,3.52-6.77,6.76V155a2.94,2.94,0,0,0,5.87,0V136.5h1.35v50.14a3.85,3.85,0,0,0,7.7,0v-29.1h1.25v29.1a3.85,3.85,0,0,0,7.7,0V136.5h1.36V155a2.93,2.93,0,0,0,5.86,0V132.51C453.57,129.27,450.05,125.75,446.81,125.75Z"/><path class="a" d="M40.45,125a6.68,6.68,0,1,0-6.68-6.68A6.68,6.68,0,0,0,40.45,125Z"/><path class="a" d="M63.1,142.46H57.67L56,133.61c-.72-3.78-3.52-6.76-6.76-6.76H31.67c-3.24,0-6.76,3.52-6.76,6.76v22.47a2.93,2.93,0,0,0,5.86,0V137.61h1.35v50.14a3.86,3.86,0,0,0,7.71,0v-29.1h1.24v29.1a3.86,3.86,0,0,0,7.71,0V137.61h1.35l1.19,7.65a3.63,3.63,0,0,0,3.59,3.06H63.1a2.93,2.93,0,1,0,0-5.86Z"/><path class="a" d="M128.93,125.11a6.69,6.69,0,1,1,6.68-6.69,6.69,6.69,0,0,1-6.68,6.69Z"/><path class="a" d="M106.27,142.6h5.44l1.68-8.84c.72-3.79,3.52-6.77,6.76-6.77h17.56c3.24,0,6.76,3.53,6.76,6.77v22.46a2.93,2.93,0,0,1-5.86,0V137.75h-1.36v50.14a3.85,3.85,0,1,1-7.7,0v-29.1h-1.24v29.1a3.86,3.86,0,0,1-7.71,0V137.75h-1.35l-1.2,7.65a3.62,3.62,0,0,1-3.58,3.06h-8.2a2.93,2.93,0,1,1,0-5.86Z"/><path class="a" d="M505.58,125.11a6.69,6.69,0,1,0-6.68-6.69,6.69,6.69,0,0,0,6.68,6.69Z"/><path class="a" d="M528.24,142.6H522.8l-1.68-8.84c-.72-3.79-3.52-6.77-6.76-6.77H496.8c-3.24,0-6.76,3.53-6.76,6.77v22.46a2.93,2.93,0,0,0,5.86,0V137.75h1.36v50.14a3.85,3.85,0,0,0,7.7,0v-29.1h1.24v29.1a3.86,3.86,0,0,0,7.71,0V137.75h1.35l1.2,7.65a3.62,3.62,0,0,0,3.58,3.06h8.2a2.93,2.93,0,0,0,0-5.86Z"/></g></svg>