<svg xmlns="http://www.w3.org/2000/svg" width="150" height="171.305" viewBox="0 0 150 171.305"><defs><style>.a{fill:#66baff;}.b{fill:#294a66;}.c{fill:#cce8ff;}.d,.e{fill:none;stroke-miterlimit:10;stroke-width:3px;}.d{stroke:#66baff;}.e{stroke:#cce8ff;}</style></defs><g transform="translate(0 -3.051)"><g transform="translate(0 3.051)"><path class="a" d="M122.74,222.775,191.624,183a12.22,12.22,0,0,0,6.11-10.582v-44.9l-74.994,43.3Z" transform="translate(-47.746 -51.469)"/><path class="b" d="M0,127.51l74.988,43.3v51.935L6.11,182.995A12.22,12.22,0,0,1,0,172.412Z" transform="translate(0 -51.466)"/><path class="b" d="M.006,88.142l74.988,43.3V114.115L0,70.82Z" transform="translate(0 -29.413)"/><path class="a" d="M197.734,70.81l.012,17.322L122.74,131.439V114.111Z" transform="translate(-47.746 -29.409)"/><path class="c" d="M68.884,4.688,0,44.458l74.994,43.3,74.994-43.3L81.1,4.688a12.22,12.22,0,0,0-12.22,0Z" transform="translate(0 -3.051)"/><path class="d" d="M66.228,82.95l-17.138,9.9v20.719" transform="translate(-19.096 -34.132)"/><path class="d" d="M90.035,97.86,73.66,107.324v20.212" transform="translate(-28.654 -39.932)"/><path class="d" d="M24.55,164.524l14.994-8.664v35.572" transform="translate(-9.55 -62.494)"/><path class="d" d="M73.64,161.42v22.589l15.006,8.652-.006,13.925" transform="translate(-28.646 -64.657)"/><path class="c" d="M15.01,113.336,75,147.98l59.994-34.65,15,8.67L75,165.3l-45-25.98L.01,121.994Z" transform="translate(-0.004 -45.949)"/><path class="e" d="M201.958,137.019l-15.006-8.652.018-34.65L172.16,85.17" transform="translate(-66.971 -34.995)"/></g><g transform="translate(7.491 11.684)"><circle class="a" cx="7.503" cy="7.503" r="7.503" transform="translate(45 129.189)"/><path class="c" d="M49.11,43.154,94.092,69.145l44.994-25.992L94.092,17.18Z" transform="translate(-26.595 -17.18)"/><path class="a" d="M122.73,85.682l.024,6.782,44.982-25.637-.012-7.136Z" transform="translate(-55.233 -33.716)"/><path class="b" d="M49.11,59.69v6.794l45.006,25.98-.024-6.782Z" transform="translate(-26.595 -33.716)"/><circle class="a" cx="7.503" cy="7.503" r="7.503" transform="translate(0 85.894)"/><circle class="a" cx="4.582" cy="4.582" r="4.582" transform="translate(17.921 115.723)"/><circle class="c" cx="7.503" cy="7.503" r="7.503" transform="translate(105 112.802)"/><circle class="c" cx="4.582" cy="4.582" r="4.582" transform="translate(77.921 132.11)"/><circle class="c" cx="4.582" cy="4.582" r="4.582" transform="translate(122.914 88.809)"/><path class="e" d="M152.6,102.23l11.768,6.782v51.959l14.988,9.6" transform="translate(-66.853 -50.265)"/><path class="e" d="M147.29,224.356V207.04l15.012-8.67" transform="translate(-64.787 -87.663)"/></g></g></svg>