<svg xmlns="http://www.w3.org/2000/svg" width="150" height="172.051" viewBox="0 0 150 172.051"><defs><style>.a{fill:#66baff;}.b{fill:#294a66;}.c{fill:#cce8ff;}</style></defs><g transform="translate(0 -23.091)"><path class="a" d="M199.58,265.147l71.244-41.129a7.516,7.516,0,0,0,3.758-6.508V135.24l-15,8.643v17.346l-15,8.643V187.2l-15,8.673v17.323l-15,8.643v17.323l-14.99,8.665Z" transform="translate(-124.582 -70.006)"/><path class="b" d="M75,265.147V247.831l-14.986-8.665V221.85l-15-8.673V195.861L29.995,187.2V169.887L15,161.221V143.9L0,135.24V217.5a7.516,7.516,0,0,0,3.758,6.508Z" transform="translate(0 -70.006)"/><path class="c" d="M75.017,39.245,15,73.892,0,65.234,71.24,24.1a7.516,7.516,0,0,1,7.516,0L150,65.234l-15,8.643Z"/><path class="c" d="M99.936,112.2,39.92,146.839,54.914,155.5l45-25.981,45,25.981,15-8.658Z" transform="translate(-24.919 -55.624)"/><path class="c" d="M124.823,204.38l-45,25.974,15,8.665L124.8,221.685l30.017,17.342,15-8.673Z" transform="translate(-49.825 -113.165)"/><path class="c" d="M149.738,296.58l-30,17.308,15,8.673,15.02-8.673,14.982,8.665,15-8.65Z" transform="translate(-74.744 -170.718)"/><path class="c" d="M174.7,388.73l-15,8.669,15,8.665,14.99-8.665Z" transform="translate(-99.688 -228.24)"/><path class="a" d="M39.92,100.727V118.05L99.936,83.411l59.982,34.647V100.727L99.936,66.08Z" transform="translate(-24.919 -26.835)"/><path class="a" d="M79.82,184.281l45-25.981,45,25.981V201.59l-45-25.974-45,25.974Z" transform="translate(-49.825 -84.401)"/><path class="a" d="M149.723,250.43l30.017,17.342V285.1l-30-17.323-30,17.308V267.765Z" transform="translate(-74.744 -141.91)"/><path class="a" d="M174.68,342.64l14.982,8.665.008,17.323-14.99-8.669-15,8.669-.015-17.316Z" transform="translate(-99.663 -199.469)"/></g></svg>