<svg xmlns="http://www.w3.org/2000/svg" width="171.682" height="29.451" viewBox="0 0 171.682 29.451"><defs><style>.a{fill:#66baff;}</style></defs><g transform="translate(0 0)"><path d="M61.039,64.195H53.876a4.471,4.471,0,0,1-4.456-4.456V42.582a.935.935,0,0,1,.935-.932h0a.935.935,0,0,1,.932.932V59.739a2.565,2.565,0,0,0,2.589,2.589h7.163Z" transform="translate(-49.42 -41.65)"/><path d="M112.915,44.449H111.05V42.582a.932.932,0,0,1,.932-.932h0a.935.935,0,0,1,.932.932Zm0,19.746H111.05V47.339h1.865Z" transform="translate(-95.969 -41.65)"/><path class="a" d="M150.264,86.354H148.4V77.9a.12.12,0,0,0-.091-.122.179.179,0,0,0-.181.032,8.67,8.67,0,0,1-12.766.511,8.418,8.418,0,0,1-2.555-6.172,8.739,8.739,0,0,1,8.729-8.729,8.509,8.509,0,0,1,6.157,2.513,8.205,8.205,0,0,1,2.572,6.1ZM148.4,72.146a6.852,6.852,0,1,0-4.231,6.356,6.852,6.852,0,0,0,4.231-6.356Z" transform="translate(-112.401 -58.09)"/><path d="M230.509,75.224a6.729,6.729,0,0,1-13.459,0V65.832a.935.935,0,0,1,.932-.932h0a.932.932,0,0,1,.932.932v9.345a4.919,4.919,0,0,0,1.319,3.384,4.853,4.853,0,0,0,7.1,0,4.933,4.933,0,0,0,1.312-3.387V65.832a.935.935,0,0,1,.935-.932h0a.935.935,0,0,1,.932.932Z" transform="translate(-176.03 -59.211)"/><path d="M288.057,44.449H286.19V42.582a.935.935,0,0,1,.932-.932h0a.935.935,0,0,1,.932.932Zm0,19.746H286.19V47.339h1.867Z" transform="translate(-228.25 -41.65)"/><path d="M312.985,64.195h-.541A4.312,4.312,0,0,1,309.3,62.9a4.248,4.248,0,0,1-1.3-3.13V42.582a.935.935,0,0,1,.935-.932h0a.935.935,0,0,1,.932.932v4.4a.36.36,0,0,0,.36.362H313v1.865h-2.78c-.245,0-.36.113-.36.333V59.771a2.462,2.462,0,0,0,.751,1.806,2.5,2.5,0,0,0,1.838.751h.541Z" transform="translate(-244.721 -41.65)"/><path d="M358.748,72.149a8.729,8.729,0,1,1-8.729-8.729A8.729,8.729,0,0,1,358.748,72.149Zm-1.865.015a6.866,6.866,0,1,0-4.248,6.326,6.852,6.852,0,0,0,4.248-6.326Z" transform="translate(-269.867 -58.093)"/><path d="M438.989,75.224a6.729,6.729,0,0,1-13.459,0V65.832a.932.932,0,0,1,.932-.932h0a.932.932,0,0,1,.932.932v9.392a4.711,4.711,0,0,0,1.431,3.445,4.65,4.65,0,0,0,3.426,1.427,4.7,4.7,0,0,0,3.563-1.542,4.931,4.931,0,0,0,1.312-3.384V65.832a.935.935,0,0,1,.935-.932h0a.935.935,0,0,1,.932.932Z" transform="translate(-333.493 -59.211)"/><path d="M503,69.392h-1.867v-1.2a2.937,2.937,0,0,0-5.477-1.49,2.692,2.692,0,0,0-.391,1.407,2.535,2.535,0,0,0,1.777,2.547l3.01,1.167a4.7,4.7,0,0,1,2.144,1.713A4.488,4.488,0,0,1,503,76.127a4.554,4.554,0,0,1-.634,2.347,4.506,4.506,0,0,1-4.136,2.349,4.693,4.693,0,0,1-3.426-1.4,4.588,4.588,0,0,1-1.419-3.387v-1.2h1.867v1.2a2.936,2.936,0,0,0,2.949,2.937,2.792,2.792,0,0,0,2.53-1.439,2.734,2.734,0,0,0,.389-1.41,2.534,2.534,0,0,0-1.772-2.55l-3-1.214a4.569,4.569,0,0,1-2.956-4.268,4.7,4.7,0,0,1,4.8-4.689,4.649,4.649,0,0,1,3.382,1.4,4.578,4.578,0,0,1,1.419,3.4Z" transform="translate(-384.745 -58.074)"/><path d="M573.045,64.195H571.18V42.582a.932.932,0,0,1,.935-.932h0a.932.932,0,0,1,.932.932Z" transform="translate(-443.501 -41.65)"/><path d="M606.442,80.585h-1.867V70.1a4.7,4.7,0,0,0-1.422-3.441,4.86,4.86,0,0,0-6.879,0,4.7,4.7,0,0,0-1.422,3.441V80.585H593V70.079a6.729,6.729,0,0,1,13.459,0Z" transform="translate(-459.982 -58.04)"/><path d="M676.472,74.857a.93.93,0,0,1,.832,1.356,8.733,8.733,0,1,1-7.735-12.793,8.513,8.513,0,0,1,5.139,1.671,8.6,8.6,0,0,1,2.589,2.963.932.932,0,0,1-.832,1.356h0a.937.937,0,0,1-.825-.5,6.822,6.822,0,0,0-2.271-2.486,6.71,6.71,0,0,0-3.808-1.135,6.864,6.864,0,0,0,0,13.728,6.663,6.663,0,0,0,3.808-1.145,6.836,6.836,0,0,0,2.271-2.506.935.935,0,0,1,.825-.5Z" transform="translate(-511.22 -58.092)"/><path d="M745.237,125.139H743.37v-1.867a.935.935,0,0,1,.935-.932h0a.935.935,0,0,1,.932.932Z" transform="translate(-573.555 -102.595)"/><g transform="translate(35.722 27.004)"><circle class="a" cx="1.224" cy="1.224" r="1.224" transform="translate(0 0)"/></g></g></svg>