<svg xmlns="http://www.w3.org/2000/svg" viewBox="0 0 1920 1030"><defs><style>.cls-1,.cls-11,.cls-6{fill:#fff;}.cls-10,.cls-2,.cls-8{fill:#66baff;}.cls-2{opacity:0.7;}.cls-3,.cls-4,.cls-5{fill:none;stroke:#cce8ff;stroke-miterlimit:10;}.cls-3,.cls-5{stroke-width:10px;}.cls-4{stroke-width:33px;}.cls-5{stroke-linecap:square;}.cls-6,.cls-8{font-size:90px;font-family:SourceHanSansJP-Bold-83pv-RKSJ-H, Source Han Sans JP;}.cls-7{fill:#000;}.cls-9{font-size:30px;}.cls-11,.cls-12,.cls-9{font-family:ToppanBunkyuGothicPr6N-DB-83pv-RKSJ-H, Toppan Bunkyu Gothic;}.cls-11,.cls-12{font-size:48px;}</style></defs><g id="背景"><rect class="cls-1" width="1920" height="1030"/></g><g id="オブジェクト"><path class="cls-2" d="M1920.5,1030.5H.5v-515S0,687,213,687c427,0,641-344,1067-343,214,.5,640.5,171.5,640.5,171.5Z"/><path class="cls-2" d="M1920,1030H0V515S214,687,427,687c427,0,641-344,1067-343,214,.5,426,171,426,171Z"/><path class="cls-2" d="M1920,1030H0V515S427,687,640,687c427,0,641-345,1067-344,214,.5,213,172,213,172Z"/><g id="レイヤー_2" data-name="レイヤー 2"><path d="M900.17,414.05h99q25.38,0,43.45,18.08t18.08,43.42V654.21a12.73,12.73,0,0,1-12.58,12.88h-.3a12.89,12.89,0,0,1-12.89-12.88V475.55a35.48,35.48,0,0,0-35.25-35.73H900.17Z"/><path d="M1019.68,616.29H920.73q-25.37,0-43.44-18.08T859.2,554.75V376.13a12.74,12.74,0,0,1,12.58-12.88h.31A12.89,12.89,0,0,1,885,376.13V554.75a35.48,35.48,0,0,0,35.23,35.73h99.47Z"/><path d="M1114.37,404.44h-26.11c-1.6,0-2.39.87-2.39,2.61v25.89h-13.5V407.05q0-2.61-2.4-2.61h-26.1V391H1070a2.11,2.11,0,0,0,2.4-1.77,2.15,2.15,0,0,0,0-.62V362.45h13.5v26.11a2.11,2.11,0,0,0,1.79,2.39,2,2,0,0,0,.6,0h26.11Z"/></g><circle class="cls-3" cx="960" cy="515" r="250"/><circle class="cls-4" cx="960.5" cy="514.5" r="290"/><path class="cls-3" d="M1141,741l139,175h484"/><path class="cls-3" d="M781,289,642,114H158"/><line class="cls-5" x1="158" y1="144" x2="158" y2="114"/><line class="cls-5" x1="1764" y1="886" x2="1764" y2="916"/></g><g id="レイヤー_4" data-name="レイヤー 4"><text class="cls-6" transform="translate(1455.42 875.38)">Li<tspan class="cls-7" x="79.38" y="0">qlid</tspan></text><text class="cls-8" transform="translate(213.59 228.87)">Li<tspan class="cls-7" x="79.38" y="0">search</tspan></text><text class="cls-9" transform="translate(213.98 266.96)">積み上げる、掘り下げる、発信する</text><text class="cls-9" transform="translate(1346.84 789.22)">意思決定プロセスの再構築</text><rect class="cls-10" x="214" y="286" width="327" height="57"/><text class="cls-11" transform="translate(222.79 334.83)">About More?</text><rect class="cls-1" x="1380" y="698" width="327" height="57"/><text class="cls-12" transform="translate(1388.79 746.83)">About More?</text></g></svg>